{"title":"Rugby.Union.Scrum.V.Sunday.R05.2014.10.05.webrip.x264 ","uid":11163629,"size":494153528,"categoryP":"video","categoryS":"tv_shows","magnet":"?xt=urn:btih:bdfc8244aa6fa79651937f6e9e56ed19228b21f2&amp;dn=Rugby.Union.Scrum.V.Sunday.R05.2014.10.05.webrip.x264+&amp;tr=udp%3A%2F%2Ftracker.openbittorrent.com%3A80&amp;tr=udp%3A%2F%2Fopen.demonii.com%3A1337&amp;tr=udp%3A%2F%2Ftracker.coppersurfer.tk%3A6969&amp;tr=udp%3A%2F%2Fexodus.desync.com%3A6969","seeders":1,"leechers":0,"uploader":"rugbybill","files":2,"time":1412556055,"description":"SPORT: Scrum v Sunday\nOn: BBC 2 Wales    \nDate: Sunday 5th October 2014 \nTime: 18:15 to 19:00 \n\nRoss Harries presents a round-up of all the weekend's Pro12 action. Studio guests include Bristol head coach Sean Holley. No more uploads from me for 2 weeks as I'm going into hospital. webrip.\n\n\nGeneral\nComplete name                            : 2014.10.05.Scrum.V.Sunday.webrip.x264.mp4\nFormat                                   : MPEG-4\nFormat profile                           : Base Media\nCodec ID                                 : isom\nFile size                                : 471 MiB\nDuration                                 : 44mn 0s\nOverall bit rate mode                    : Variable\nOverall bit rate                         : 1 497 Kbps\n\nVideo\nID                                       : 1\nFormat                                   : AVC\nFormat/Info                              : Advanced Video Codec\nFormat profile                           : &lt;a class=&quot;__cf_email__&quot; href=&quot;/cdn-cgi/l/email-protection&quot; data-cfemail=&quot;abe6cac2c5ebe798859a&quot;&gt;[email&amp;#160;protected]&lt;/a&gt;&lt;script cf-hash='f9e31' type=&quot;text/javascript&quot;&gt;\n/* &lt;![CDATA[ */!function(){try{var t=&quot;currentScript&quot;in document?document.currentScript:function(){for(var t=document.getElementsByTagName(&quot;script&quot;),e=t.length;e--;)if(t[e].getAttribute(&quot;cf-hash&quot;))return t[e]}();if(t&amp;&amp;t.previousSibling){var e,r,n,i,c=t.previousSibling,a=c.getAttribute(&quot;data-cfemail&quot;);if(a){for(e=&quot;&quot;,r=parseInt(a.substr(0,2),16),n=2;a.length-n;n+=2)i=parseInt(a.substr(n,2),16)^r,e+=String.fromCharCode(i);e=document.createTextNode(e),c.parentNode.replaceChild(e,c)}}}catch(u){}}();/* ]]&gt; */&lt;/script&gt;\nFormat settings, CABAC                   : Yes\nFormat settings, ReFrames                : 2 frames\nCodec ID                                 : avc1\nCodec ID/Info                            : Advanced Video Coding\nDuration                                 : 44mn 0s\nBit rate mode                            : Constant\nBit rate                                 : 1 404 Kbps\nMaximum bit rate                         : 2 188 Kbps\nWidth                                    : 832 pixels\nHeight                                   : 468 pixels\nDisplay aspect ratio                     : 16:9\nFrame rate mode                          : Constant\nFrame rate                               : 25.000 fps\nColor space                              : YUV\nChroma subsampling                       : 4:2:0\nBit depth                                : 8 bits\nScan type                                : Progressive\nBits/(Pixel*Frame)                       : 0.144\nStream size                              : 441 MiB (94%)\n\nAudio\nID                                       : 2\nFormat                                   : AAC\nFormat/Info                              : Advanced Audio Codec\nFormat profile                           : LC\nCodec ID                                 : 40\nDuration                                 : 44mn 0s\nBit rate mode                            : Variable\nBit rate                                 : 93.5 Kbps\nMaximum bit rate                         : 95.4 Kbps\nChannel(s)                               : 2 channels\nChannel positions                        : Front: L R\nSampling rate                            : 48.0 KHz\nCompression mode                         : Lossy\nStream size                              : 29.4 MiB (6%)\n","torrent":{"xt":"urn:btih:bdfc8244aa6fa79651937f6e9e56ed19228b21f2","amp;dn":"Rugby.Union.Scrum.V.Sunday.R05.2014.10.05.webrip.x264+","amp;tr":["udp%3A%2F%2Ftracker.openbittorrent.com%3A80","udp%3A%2F%2Fopen.demonii.com%3A1337","udp%3A%2F%2Ftracker.coppersurfer.tk%3A6969","udp%3A%2F%2Fexodus.desync.com%3A6969"],"infoHash":"bdfc8244aa6fa79651937f6e9e56ed19228b21f2","infoHashBuffer":{"type":"Buffer","data":[189,252,130,68,170,111,167,150,81,147,127,110,158,86,237,25,34,139,33,242]},"announce":[],"urlList":[]}}